<svg width="280" height="24" viewBox="0 0 280 24" fill="none" xmlns="http://www.w3.org/2000/svg">
<rect width="42" height="24" rx="12" fill="#BDBDBD"/>
<circle cx="12" cy="12" r="10" fill="white"/>
<path d="M55.376 12.784V11.808H61.568V12.784H55.376ZM56.784 6.704C57.584 6.704 58.32 6.848 58.992 7.136C59.664 7.41333 60.2507 7.808 60.752 8.32C61.264 8.832 61.6587 9.43467 61.936 10.128C62.2133 10.8213 62.352 11.5787 62.352 12.4C62.352 13.2213 62.2133 13.9787 61.936 14.672C61.6587 15.3653 61.264 15.968 60.752 16.48C60.2507 16.992 59.664 17.392 58.992 17.68C58.32 17.9573 57.584 18.096 56.784 18.096C55.9307 18.096 55.136 17.9573 54.4 17.68C53.664 17.4027 53.0507 16.992 52.56 16.448L53.296 15.696C53.7653 16.176 54.288 16.5227 54.864 16.736C55.44 16.9387 56.064 17.04 56.736 17.04C57.3653 17.04 57.9467 16.9227 58.48 16.688C59.024 16.4533 59.4933 16.128 59.888 15.712C60.2933 15.296 60.608 14.8107 60.832 14.256C61.056 13.6907 61.168 13.072 61.168 12.4C61.168 11.728 61.056 11.1147 60.832 10.56C60.608 9.99467 60.2933 9.504 59.888 9.088C59.4933 8.672 59.024 8.34667 58.48 8.112C57.9467 7.87733 57.3653 7.76 56.736 7.76C56.064 7.76 55.44 7.86667 54.864 8.08C54.288 8.29333 53.7653 8.63467 53.296 9.104L52.56 8.352C53.0507 7.808 53.664 7.39733 54.4 7.12C55.136 6.84267 55.9307 6.704 56.784 6.704ZM69.6329 18.096C69.6329 18.096 69.6115 18.096 69.5689 18.096C69.5262 18.096 69.4835 18.096 69.4409 18.096C69.4089 18.096 69.3822 18.096 69.3609 18.096C67.6969 18.0853 66.4009 17.7067 65.4729 16.96C64.5449 16.2133 64.0809 15.152 64.0809 13.776C64.0809 12.4213 64.5449 11.376 65.4729 10.64C66.4115 9.89333 67.7289 9.51467 69.4249 9.504C69.4355 9.504 69.4569 9.504 69.4889 9.504C69.5315 9.504 69.5689 9.504 69.6009 9.504C69.6329 9.504 69.6542 9.504 69.6649 9.504C71.3715 9.51467 72.6995 9.89333 73.6489 10.64C74.5982 11.376 75.0729 12.4213 75.0729 13.776C75.0729 15.1627 74.5929 16.2293 73.6329 16.976C72.6835 17.7227 71.3502 18.096 69.6329 18.096ZM69.6169 17.104C70.5662 17.104 71.3609 16.976 72.0009 16.72C72.6409 16.4533 73.1262 16.0747 73.4569 15.584C73.7875 15.0933 73.9529 14.4907 73.9529 13.776C73.9529 13.0827 73.7875 12.496 73.4569 12.016C73.1262 11.5253 72.6409 11.152 72.0009 10.896C71.3609 10.64 70.5662 10.512 69.6169 10.512C69.6062 10.512 69.5742 10.512 69.5209 10.512C69.4782 10.512 69.4515 10.512 69.4409 10.512C68.5129 10.512 67.7342 10.6453 67.1049 10.912C66.4755 11.168 66.0009 11.536 65.6809 12.016C65.3609 12.496 65.2009 13.0827 65.2009 13.776C65.2009 14.48 65.3609 15.0773 65.6809 15.568C66.0115 16.0587 66.4915 16.4373 67.1209 16.704C67.7502 16.96 68.5235 17.0933 69.4409 17.104C69.4622 17.104 69.4942 17.104 69.5369 17.104C69.5795 17.104 69.6062 17.104 69.6169 17.104ZM69.0089 21.104V6.128H70.1129V21.104H69.0089ZM77.4754 18V9.6H78.6114V16.272L84.2274 9.6H85.2354V18H84.0994V11.312L78.4994 18H77.4754ZM91.947 18.08C91.1363 18.08 90.4057 17.8987 89.755 17.536C89.115 17.1627 88.6083 16.656 88.235 16.016C87.8617 15.3653 87.675 14.624 87.675 13.792C87.675 12.9493 87.8617 12.208 88.235 11.568C88.6083 10.928 89.115 10.4267 89.755 10.064C90.395 9.70133 91.1257 9.52 91.947 9.52C92.779 9.52 93.515 9.70133 94.155 10.064C94.8057 10.4267 95.3123 10.928 95.675 11.568C96.0483 12.208 96.235 12.9493 96.235 13.792C96.235 14.624 96.0483 15.3653 95.675 16.016C95.3123 16.656 94.8057 17.1627 94.155 17.536C93.5043 17.8987 92.7683 18.08 91.947 18.08ZM91.947 17.072C92.555 17.072 93.0937 16.9387 93.563 16.672C94.0323 16.3947 94.4003 16.0107 94.667 15.52C94.9443 15.0187 95.083 14.4427 95.083 13.792C95.083 13.1307 94.9443 12.5547 94.667 12.064C94.4003 11.5733 94.0323 11.1947 93.563 10.928C93.0937 10.6507 92.5603 10.512 91.963 10.512C91.3657 10.512 90.8323 10.6507 90.363 10.928C89.8937 11.1947 89.5203 11.5733 89.243 12.064C88.9657 12.5547 88.827 13.1307 88.827 13.792C88.827 14.4427 88.9657 15.0187 89.243 15.52C89.5203 16.0107 89.8937 16.3947 90.363 16.672C90.8323 16.9387 91.3603 17.072 91.947 17.072ZM98.6629 18V9.6H106.215V18H105.079V10.288L105.367 10.592H99.5109L99.7989 10.288V18H98.6629ZM109.444 18V9.6H110.58V16.272L116.196 9.6H117.204V18H116.068V11.312L110.468 18H109.444ZM125.884 18V14.976L126.092 15.216H123.244C122.166 15.216 121.324 14.9813 120.716 14.512C120.108 14.0427 119.804 13.36 119.804 12.464C119.804 11.504 120.129 10.7893 120.78 10.32C121.43 9.84 122.3 9.6 123.388 9.6H126.924V18H125.884ZM119.74 18L122.044 14.768H123.228L120.972 18H119.74ZM125.884 14.64V10.256L126.092 10.592H123.42C122.641 10.592 122.033 10.7413 121.596 11.04C121.169 11.3387 120.956 11.824 120.956 12.496C120.956 13.744 121.75 14.368 123.34 14.368H126.092L125.884 14.64Z" fill="#333333"/>
</svg>
