<svg width="280" height="24" fill="none" xmlns="http://www.w3.org/2000/svg"><rect width="42" height="24" rx="12" fill="#BDBDBD"/><circle cx="12" cy="12" r="10" fill="#fff"/><path d="M55.376 12.784v-.976h6.192v.976h-6.192Zm1.408-6.08c.8 0 1.536.144 2.208.432a5.226 5.226 0 0 1 1.76 1.184 5.32 5.32 0 0 1 1.184 1.808c.277.693.416 1.45.416 2.272 0 .821-.139 1.579-.416 2.272a5.32 5.32 0 0 1-1.184 1.808 5.43 5.43 0 0 1-1.76 1.2 5.733 5.733 0 0 1-2.208.416 6.707 6.707 0 0 1-2.384-.416 4.63 4.63 0 0 1-1.84-1.232l.736-.752c.47.48.992.827 1.568 1.04.576.203 1.2.304 1.872.304.63 0 1.21-.117 1.744-.352a4.224 4.224 0 0 0 1.408-.976c.405-.416.72-.901.944-1.456a4.995 4.995 0 0 0 .336-1.856c0-.672-.112-1.285-.336-1.84a4.414 4.414 0 0 0-.944-1.472 4.223 4.223 0 0 0-1.408-.976 4.282 4.282 0 0 0-1.744-.352c-.672 0-1.296.107-1.872.32a4.337 4.337 0 0 0-1.568 1.024l-.736-.752A4.63 4.63 0 0 1 54.4 7.12a6.707 6.707 0 0 1 2.384-.416Zm12.849 11.392h-.272c-1.664-.01-2.96-.39-3.888-1.136-.928-.747-1.392-1.808-1.392-3.184 0-1.355.464-2.4 1.392-3.136.939-.747 2.256-1.125 3.952-1.136h.24c1.706.01 3.034.39 3.984 1.136.95.736 1.424 1.781 1.424 3.136 0 1.387-.48 2.453-1.44 3.2-.95.747-2.283 1.12-4 1.12Zm-.016-.992c.95 0 1.744-.128 2.384-.384.64-.267 1.125-.645 1.456-1.136.33-.49.496-1.093.496-1.808 0-.693-.166-1.28-.496-1.76-.33-.49-.816-.864-1.456-1.12-.64-.256-1.435-.384-2.384-.384h-.176c-.928 0-1.707.133-2.336.4-.63.256-1.104.624-1.424 1.104-.32.48-.48 1.067-.48 1.76 0 .704.16 1.301.48 1.792.33.49.81.87 1.44 1.136.63.256 1.403.39 2.32.4h.176Zm-.608 4V6.128h1.104v14.976h-1.104ZM77.475 18V9.6h1.136v6.672L84.227 9.6h1.008V18H84.1v-6.688L78.5 18h-1.024Zm14.472.08c-.81 0-1.541-.181-2.192-.544a4.154 4.154 0 0 1-1.52-1.52c-.373-.65-.56-1.392-.56-2.224 0-.843.187-1.584.56-2.224.373-.64.88-1.141 1.52-1.504s1.37-.544 2.192-.544c.832 0 1.568.181 2.208.544.65.363 1.157.864 1.52 1.504.373.64.56 1.381.56 2.224 0 .832-.187 1.573-.56 2.224a4 4 0 0 1-1.52 1.52c-.65.363-1.387.544-2.208.544Zm0-1.008c.608 0 1.147-.133 1.616-.4.47-.277.837-.661 1.104-1.152.277-.501.416-1.077.416-1.728 0-.661-.139-1.237-.416-1.728a2.831 2.831 0 0 0-1.104-1.136 3.085 3.085 0 0 0-1.6-.416c-.597 0-1.13.139-1.6.416a2.94 2.94 0 0 0-1.12 1.136c-.277.49-.416 1.067-.416 1.728 0 .65.139 1.227.416 1.728.277.49.65.875 1.12 1.152.47.267.997.4 1.584.4Zm6.716.928V9.6h7.552V18h-1.136v-7.712l.288.304h-5.856l.288-.304V18h-1.136Zm10.781 0V9.6h1.136v6.672l5.616-6.672h1.008V18h-1.136v-6.688l-5.6 6.688h-1.024Zm16.44 0v-3.024l.208.24h-2.848c-1.078 0-1.92-.235-2.528-.704-.608-.47-.912-1.152-.912-2.048 0-.96.325-1.675.976-2.144.65-.48 1.52-.72 2.608-.72h3.536V18h-1.04Zm-6.144 0 2.304-3.232h1.184L120.972 18h-1.232Zm6.144-3.36v-4.384l.208.336h-2.672c-.779 0-1.387.15-1.824.448-.427.299-.64.784-.64 1.456 0 1.248.794 1.872 2.384 1.872h2.752l-.208.272Z" fill="#333"/></svg>